<svg width="13" height="14" viewBox="0 0 13 14" fill="none" xmlns="http://www.w3.org/2000/svg">
<path d="M5.7048 3.33254L3.84416 1.1848C3.62966 0.937304 3.23642 0.938404 2.98727 1.1881L1.45718 2.72094C1.00178 3.17689 0.871428 3.85394 1.13488 4.39679C2.70876 7.6555 5.33688 10.2873 8.59339 11.8657C9.13568 12.1292 9.81218 11.9988 10.2676 11.5429L11.812 9.99576C12.0622 9.74551 12.0628 9.35006 11.8131 9.13556L9.65708 7.28482C9.43158 7.09122 9.08123 7.11652 8.85519 7.34312L8.10499 8.09441C8.06658 8.13467 8.01603 8.1612 7.96108 8.16994C7.90614 8.17869 7.84984 8.16916 7.80084 8.14281C6.57459 7.43667 5.5574 6.41815 4.85286 5.19098C4.82647 5.14189 4.81692 5.08551 4.82566 5.03047C4.8344 4.97543 4.86096 4.92478 4.90126 4.88628L5.64925 4.13774C5.87585 3.91004 5.9006 3.55804 5.7048 3.33199V3.33254Z" stroke="white" stroke-width="2" stroke-linecap="round" stroke-linejoin="round"/>
</svg>
