<svg width="200" height="67" viewBox="0 0 200 67" fill="none" xmlns="http://www.w3.org/2000/svg">
<g clip-path="url(#clip0_12_93)">
<path d="M16.9673 27.6552C16.9673 28.8576 18.0361 29.9265 19.2385 29.9265C20.4409 29.9265 21.5097 28.8576 21.5097 27.6552C21.5097 26.4528 20.4409 25.384 19.2385 25.384C17.9025 25.384 16.9673 26.3192 16.9673 27.6552Z" fill="#034EA0"/>
<path d="M14.6961 34.6024C15.8985 34.6024 19.2385 34.6024 20.1737 36.3392C20.5745 36.8736 21.6433 38.2097 20.0401 41.4161C18.4369 44.6225 18.4369 47.8289 18.8377 49.1649C19.9065 52.9057 22.7121 55.8449 26.3193 56.9137H26.4529H26.5865C30.5945 55.8449 33.1329 52.2377 33.9345 48.8977C34.0681 47.9625 34.7361 45.2905 32.8657 41.2825C31.3961 38.0761 32.1977 37.0072 32.7321 36.2056C33.6673 34.3352 36.3393 34.4688 39.0114 34.4688C39.6794 34.4688 41.817 34.4688 41.817 34.4688V23.1128H38.477V31.1288C37.9426 31.1288 37.4082 31.1288 37.0073 31.1288C35.6713 31.1288 34.4689 31.1288 33.2665 31.5296C31.1289 32.3312 29.6593 34.068 28.9913 36.6064C28.3233 39.0113 29.1249 41.0153 29.9265 42.8857C30.3273 43.9545 30.7281 45.0233 30.9953 46.0921C31.2625 49.1649 29.3921 52.2377 26.5865 53.5737H26.4529C26.4529 53.5737 26.4529 53.5737 26.3193 53.5737C23.7809 52.3713 21.5097 49.5657 21.7769 46.0921C21.9105 45.4241 22.1777 44.4889 22.7121 43.4201C23.5137 41.5497 24.4489 39.1449 23.9145 36.6064C23.1129 33.8008 21.5097 32.064 18.9713 31.396C17.3681 30.9952 14.5625 31.1288 14.5625 31.1288V23.1128H11.0888V34.4688C11.2224 34.6024 13.7609 34.6024 14.6961 34.6024Z" fill="#034EA0"/>
<path d="M10.02 34.6026V23.2466H4.54242L9.08484 28.9914L4.54242 34.6026H10.02Z" fill="#034EA0"/>
<path d="M41.9506 14.8297C41.9506 10.2873 44.0882 9.08492 46.7602 8.01611H25.1169C22.1777 8.01611 19.6393 10.1537 19.1049 13.0929V8.01611H11.2224V22.1778H41.9506V14.8297Z" fill="#00A94E"/>
<path d="M58.3834 48.0963H64.6627V28.8578H71.6099V23.2466H51.169V28.8578H58.3834V48.0963Z" fill="white"/>
<path d="M92.1844 42.4851H80.0267V37.809H90.7148V32.8658H80.0267V28.457H91.9172V23.2466H73.7475V48.0963H92.1844V42.4851Z" fill="white"/>
<path d="M119.439 48.0963L109.82 35.6714L119.439 23.2466H111.423L102.872 35.6714L111.556 48.0963H119.439Z" fill="white"/>
<path d="M102.204 40.4811V32.8658V23.2466H95.3908V48.0963H102.204V40.4811Z" fill="white"/>
<path d="M127.455 33.4002H127.589L136.673 48.0963H143.353V23.2466H137.208V37.9426H137.074L127.989 23.2466H121.176V48.0963H127.455V33.4002Z" fill="white"/>
<path d="M158.317 48.6307C166.065 48.6307 170.474 42.8858 170.474 35.6714C170.474 28.457 166.065 22.7122 158.317 22.7122C150.568 22.7122 146.159 28.457 146.159 35.6714C146.159 42.8858 150.568 48.6307 158.317 48.6307ZM158.317 28.3234C162.458 28.3234 164.061 32.0642 164.061 35.6714C164.061 39.4122 162.458 43.0194 158.317 43.0194C154.175 43.0194 152.572 39.2786 152.572 35.6714C152.572 32.0642 154.175 28.3234 158.317 28.3234Z" fill="white"/>
<path d="M184.903 41.2826C184.903 43.2866 182.766 43.6874 180.494 43.6874C177.555 43.6874 175.017 43.0194 173.146 42.0842L172.478 47.5618C174.883 48.2298 177.956 48.6306 180.361 48.6306C186.239 48.6306 191.984 46.8938 191.984 40.3474C191.984 31.2625 179.426 34.0681 179.426 30.0601C179.426 27.9225 182.365 27.7889 184.235 27.7889C186.239 27.7889 188.243 28.1897 190.114 28.9913L190.514 23.7809C188.778 23.2465 186.239 22.8457 183.701 22.8457C178.357 22.8457 172.211 24.4489 172.211 30.4609C172.345 39.5458 184.903 36.6066 184.903 41.2826Z" fill="white"/>
</g>
<defs>
<clipPath id="clip0_12_93">
<rect width="200" height="66.3995" fill="white"/>
</clipPath>
</defs>
</svg>
