<svg width="199" height="42" viewBox="0 0 199 42" fill="none" xmlns="http://www.w3.org/2000/svg">
<path fill-rule="evenodd" clip-rule="evenodd" d="M65.4658 17.4575C68.2882 20.0144 69.8489 23.6805 69.7339 27.4844C69.7129 28.1863 69.4451 28.859 68.9807 29.3854C68.4325 29.8575 67.7379 30.1228 67.014 30.1353H48.2471C49.379 33.5131 52.5277 35.8005 56.0928 35.8402C56.4547 35.8674 56.8188 35.8674 57.1807 35.8402H58.6453C59.8985 35.5352 61.0931 35.0276 62.1811 34.3362C62.7982 33.91 63.5954 33.8453 64.2732 34.1691C64.9699 34.3947 65.539 34.9044 65.8424 35.5687C66.5119 36.9244 66.0725 38.1172 64.5452 39.1616C63.0535 40.0766 61.4404 40.7785 59.7541 41.2506H56.1765C52.5277 41.3007 49.0212 39.8405 46.4896 37.2189C43.887 34.7038 42.4475 31.2237 42.5145 27.6077C42.4685 20.1209 48.5086 14.0149 56.007 13.969H56.1765C59.6098 13.8854 62.9384 15.1367 65.4658 17.4575ZM119.103 13.9207C122.484 13.9376 125.741 15.1973 128.252 17.4575C131.051 20.0269 132.587 23.6888 132.457 27.4844C132.436 28.1863 132.17 28.859 131.704 29.3854C131.158 29.8575 130.461 30.1228 129.737 30.1353H110.887C112.027 33.534 115.209 35.8277 118.797 35.8402C119.157 35.8674 119.521 35.8674 119.883 35.8402H121.368C122.622 35.5311 123.814 35.0234 124.904 34.3362C125.521 33.91 126.319 33.8453 126.996 34.1691C127.689 34.4009 128.256 34.9085 128.566 35.5687C129.214 36.9244 128.796 38.1172 127.268 39.1616C125.777 40.0766 124.164 40.7785 122.477 41.2506H118.881C115.238 41.2944 111.74 39.8364 109.213 37.2189C106.61 34.7038 105.171 31.2237 105.238 27.6077C105.282 20.006 111.487 13.8771 119.103 13.9207ZM19.1441 17.7084C21.1589 15.2602 24.1947 13.8794 27.3664 13.9692C30.2725 13.917 33.0697 15.0742 35.0866 17.1653C37.1704 19.1686 38.3295 21.9427 38.2876 24.8296C38.3044 24.8985 38.3044 24.9717 38.2876 25.0406V38.5143C38.3002 39.235 38.0031 39.9264 37.4717 40.4131C36.9779 40.9374 36.2875 41.2341 35.5678 41.2299C34.0886 41.2174 32.9003 40.012 32.9107 38.5352V24.8296C32.9588 23.3694 32.4065 21.951 31.3834 20.9045C30.3269 19.9039 28.9272 19.344 27.471 19.3378C26.0128 19.3357 24.611 19.8976 23.5587 20.9045C22.4979 21.9322 21.9058 23.3527 21.9267 24.8296V38.5143C21.9351 39.2245 21.6569 39.9097 21.1526 40.4131C20.1463 41.4639 18.4767 41.5015 17.4264 40.4946C17.3993 40.4695 17.3721 40.4424 17.3449 40.4131C16.8134 39.9264 16.5163 39.235 16.5289 38.5143V24.8296C16.4996 23.3548 15.8992 21.949 14.8552 20.9045C12.6584 18.8155 9.20834 18.8155 7.00945 20.9045C5.94662 21.9322 5.35662 23.3527 5.37754 24.8296V38.5143C5.39428 39.2224 5.1223 39.9076 4.62436 40.4131C4.1306 40.9374 3.44227 41.2341 2.72047 41.2299C1.99866 41.2445 1.30406 40.9458 0.816577 40.4131C0.285161 39.9264 -0.0119295 39.235 0.000623637 38.5143V24.8296C-0.0391279 21.9427 1.11994 19.1686 3.20167 17.1653C5.23318 15.0847 8.03253 13.9274 10.9428 13.9692C14.1124 13.8668 17.1461 15.2497 19.1441 17.7084ZM139.32 0.43242C140.027 0.45331 140.703 0.726961 141.224 1.20533C141.697 1.72757 141.962 2.40229 141.977 3.10627V38.4512C142 39.1614 141.726 39.8487 141.224 40.3521C140.728 40.8702 140.039 41.1668 139.32 41.1668C137.832 41.1334 136.633 39.9364 136.6 38.4512V3.10627C136.596 2.38558 136.893 1.69832 137.416 1.20533C137.912 0.687271 138.604 0.407353 139.32 0.43242ZM76.5958 0.327764C77.2988 0.348654 77.9725 0.613949 78.4997 1.07978C78.9663 1.6062 79.232 2.27884 79.2529 2.98072V16.5171C81.6191 14.6955 84.5294 13.7179 87.517 13.7388C95.0154 13.6907 101.133 19.7236 101.179 27.2104V27.484C101.246 31.0979 99.8065 34.5781 97.2039 37.0932C91.9483 42.4158 83.364 42.4805 78.031 37.231L77.893 37.0932C75.2861 34.5781 73.832 31.1021 73.876 27.484V2.98072C73.8781 2.26213 74.171 1.57486 74.6919 1.07978C75.1961 0.576348 75.8845 0.304786 76.5958 0.327764ZM87.517 19.1283C82.9728 19.1157 79.2759 22.7797 79.2529 27.3169V27.484C79.2177 29.5312 79.99 31.5037 81.391 32.9822L81.7007 33.2913C83.2113 34.8852 85.3202 35.773 87.517 35.7354C89.7306 35.7688 91.8604 34.8831 93.3961 33.2913C96.6787 30.1412 96.7812 24.9313 93.6283 21.6538C92.0341 19.9973 89.8184 19.0823 87.517 19.1283ZM56.0928 19.2331C52.5716 19.2457 49.4354 21.4599 48.2471 24.7688H63.9803C63.4845 23.0308 62.3589 21.5414 60.8211 20.5909C59.4215 19.6634 57.7707 19.1893 56.0928 19.2331ZM111.851 22.8846C111.46 23.4695 111.142 24.1045 110.907 24.7688H126.599C126.111 23.0329 124.992 21.5435 123.461 20.5909C119.621 18.0236 114.422 19.0493 111.851 22.8846Z" fill="#F5F5F5"/>
<path fill-rule="evenodd" clip-rule="evenodd" d="M150.303 41.1254C148.826 41.0898 147.644 39.8845 147.646 38.4076C147.669 36.9684 148.86 35.8173 150.303 35.8403C151.021 35.8132 151.713 36.0952 152.207 36.6132C152.732 37.1041 153.027 37.7935 153.023 38.5142C153.042 39.2286 152.743 39.9159 152.207 40.3921C151.72 40.9165 151.017 41.1859 150.303 41.1254ZM163.798 38.4509C163.78 39.1528 163.514 39.8275 163.045 40.3518C162.547 40.8678 161.859 41.1623 161.139 41.1665C160.417 41.1874 159.723 40.8887 159.237 40.3518C158.706 39.8609 158.405 39.1737 158.401 38.4509V27.4839C158.367 23.8638 159.829 20.3878 162.438 17.8748C164.957 15.2761 168.443 13.839 172.062 13.9058C172.786 13.9183 173.481 14.1857 174.029 14.6578C174.494 15.1842 174.761 15.8569 174.782 16.5588C174.768 17.2606 174.5 17.9375 174.029 18.4597C173.514 18.9903 172.803 19.2848 172.062 19.2744C167.483 19.3308 163.798 23.0554 163.798 27.6302V38.5344V38.4509ZM198.759 30.2624C198.727 33.1556 197.537 35.9172 195.453 37.9289C191.164 42.2049 184.218 42.2049 179.929 37.9289C177.849 35.9005 176.674 33.1222 176.665 30.2186V16.559C176.686 15.8571 176.952 15.1844 177.418 14.658C177.946 14.1922 178.619 13.9269 179.322 13.906C180.046 13.9185 180.743 14.1859 181.289 14.658C181.756 15.1844 182.021 15.8571 182.042 16.559V30.135C182.013 31.6265 182.603 33.0658 183.674 34.1061C184.699 35.2028 186.145 35.819 187.649 35.796C189.166 35.819 190.622 35.207 191.666 34.1061C192.746 33.0721 193.338 31.6286 193.298 30.135V16.559C193.311 15.0821 194.518 13.8935 195.997 13.9038C196.012 13.9038 196.024 13.9038 196.039 13.906C196.744 13.9185 197.418 14.1859 197.943 14.658C198.422 15.1782 198.696 15.8529 198.717 16.559V30.2624H198.759Z" fill="#1A1A1A"/>
</svg>
