<svg width="200" height="50" viewBox="0 0 200 50" fill="none" xmlns="http://www.w3.org/2000/svg">
<path d="M21.874 48.3495H24.3347L41.4362 4.2821L43.6832 48.3495H52.8265L50.0291 1.1751H39.649L26.7629 34.4661L13.812 1.1751H2.86861L0 48.3495H2.7909L5.43287 3.82648L21.874 48.3495ZM163.291 48.3495H166.004V10.4265L196.199 48.3495H200V1.1751H197.286V35.2888L170.032 1.1751H163.291V48.3495ZM81.4025 48.919C68.2898 48.919 58.5119 39.9714 58.5119 25.5628C58.5119 11.1542 68.2898 0.681521 81.4025 0.681521C94.5153 0.681521 104.3 9.63549 104.3 24.0441C104.3 38.4527 94.5217 48.919 81.4025 48.919ZM81.4025 46.5271C89.322 46.5271 95.0657 37.0353 95.0657 24.7591C95.0657 12.483 89.7882 3.01651 81.4025 3.01651C73.4896 3.01651 67.72 12.5084 67.72 24.7591C67.72 37.0099 73.0234 46.5271 81.4025 46.5271ZM133.206 48.8811C120.086 48.8811 110.309 39.9334 110.309 25.5185C110.309 11.1035 120.086 0.643555 133.206 0.643555C146.325 0.643555 156.103 9.59119 156.103 24.0061C156.103 38.4211 146.293 48.8811 133.174 48.8811H133.206ZM133.206 46.4891C141.119 46.4891 146.863 36.9973 146.863 24.7212C146.863 12.4451 141.54 2.95323 133.174 2.95323C125.254 2.95323 119.517 12.4451 119.517 24.7212C119.517 36.9973 124.788 46.4891 133.174 46.4891H133.206Z" fill="#F5F5F5"/>
</svg>
