<svg width="200" height="90" viewBox="0 0 200 90" fill="none" xmlns="http://www.w3.org/2000/svg">
<g clip-path="url(#clip0_12_243)">
<path fill-rule="evenodd" clip-rule="evenodd" d="M0 18.7354H25.2595V89.6696H19.3772V24.6177H5.88235V89.6696H0V18.7354Z" fill="white"/>
<path fill-rule="evenodd" clip-rule="evenodd" d="M90.4844 89.6696H131.488V18.7354H125.433V84.1333H113.668V18.7354H107.785V84.1333H96.1938V18.7354H90.4844V89.6696Z" fill="white"/>
<path fill-rule="evenodd" clip-rule="evenodd" d="M140.657 18.7354C157.959 18.7354 167.474 35.1713 155.536 47.6281C161.938 50.3963 166.263 54.8945 168.339 60.6039C171.799 76.0018 162.284 88.4585 146.713 89.6696H140.657V18.7354ZM146.713 24.7907V47.4551C151.903 45.552 154.498 42.2648 154.671 37.5935C155.19 34.6523 154.671 31.7111 153.114 29.462C151.73 27.3859 149.654 26.1748 146.713 24.7907ZM146.713 50.7423V84.3063C153.114 82.9222 157.093 80.5001 159.862 77.3859C162.284 74.6177 163.841 71.1575 163.322 66.8322C162.63 57.8357 157.266 52.2994 146.713 50.7423Z" fill="white"/>
<path fill-rule="evenodd" clip-rule="evenodd" d="M182.18 76.3478C176.125 37.9395 173.183 18.7354 173.183 18.7354C177.682 18.7354 178.72 18.7354 178.72 18.7354C183.564 55.2405 186.678 72.7146 186.678 72.7146C187.716 72.7146 187.889 72.7146 187.889 72.7146C192.388 36.7284 194.637 18.7354 194.637 18.7354C198.097 18.7354 200 18.7354 200 18.7354C193.599 65.9672 190.311 89.6696 190.311 89.6696C187.197 89.6696 185.64 89.6696 185.64 89.6696C186.851 80.6731 187.37 76.3478 187.37 76.3478C183.91 76.3478 182.18 76.3478 182.18 76.3478Z" fill="white"/>
<path fill-rule="evenodd" clip-rule="evenodd" d="M56.4014 49.8772C56.4014 29.116 56.4014 18.7353 56.4014 18.7353H63.3218H65.3979C69.0312 18.9084 71.7993 19.7734 74.0485 21.5035C75.6056 22.7146 76.8166 24.0987 77.6817 26.0018C78.5467 27.7319 79.0658 32.0571 79.0658 38.8046V41.9187V67.6973C79.0658 79.635 69.3772 89.4966 57.4395 89.4966H56.2284C44.2907 89.4966 34.6021 79.635 34.6021 67.6973C34.6021 55.2405 34.4291 42.9568 34.4291 30.327C35.4671 15.2751 42.0415 4.37548 58.3045 1.95334C59.3426 -0.468809 65.744 -0.641819 77.3357 1.60732C83.91 2.29936 91.1765 3.16441 99.481 3.85645C94.1177 4.89451 83.737 6.2786 68.6851 7.83569C64.7059 8.70074 61.7647 8.52773 59.6886 7.48967C38.9273 9.56579 31.3149 43.8219 56.4014 49.8772ZM41.1765 49.8772C51.3841 58.5277 61.7647 58.5277 72.3184 49.8772C72.6644 49.7042 73.0104 49.3582 73.3564 49.0122C73.3564 55.2405 73.3564 61.8149 73.3564 68.0433C73.3564 76.8668 66.09 84.3063 57.2664 84.3063H56.4014C47.5779 84.3063 40.3114 76.8668 40.3114 68.0433V49.1852C40.4844 49.5312 40.8305 49.7042 41.1765 49.8772ZM64.1869 2.47237C65.571 2.47237 66.782 3.33742 66.782 4.20247C66.782 5.24053 65.571 6.10559 64.1869 6.10559C62.8028 6.10559 61.5917 5.24053 61.5917 4.20247C61.5917 3.33742 62.8028 2.47237 64.1869 2.47237ZM72.8374 36.7284C72.3184 41.2267 69.2042 44.8599 63.8408 47.8011C63.4948 47.9741 63.1488 48.1471 62.8028 48.3201V48.1471V47.9741V47.8011V47.6281V47.4551V47.2821V47.1091V46.936V46.763V46.59V46.244V46.071V45.898V45.552V45.3789V45.0329V44.8599V44.5139V44.1679V43.8218V43.4758V43.1298V42.7838V42.4378V42.2648V42.0917V41.7457V41.5727V41.3997V41.0537V40.8807V40.5347V40.3616V40.0156V39.8426V39.6696V39.1506V38.8046V38.6315V38.2855V38.1125V37.7665V37.5935V37.2475V37.0744V36.7284L62.6298 36.5554V36.2094V36.0364V35.6904V35.5174V35.1713V34.9983V34.6523V34.4793V34.1333V33.9603V33.6142V33.4412V33.0952V32.9222V32.7492V32.2302V31.8841V31.7111V31.5381V31.1921V31.0191V30.6731V30.327V29.981V29.808V29.635V29.462V29.116V28.7699V28.4239V28.2509V27.9049V27.7319V27.3859V27.2129V27.0398V26.6938V26.5208V26.3478V26.1748V26.0018V25.8288V25.6558V25.4827V25.3097V25.1367V24.9637C65.917 24.6177 68.3391 25.1367 70.0692 26.5208L70.2422 26.6938C72.4914 28.7699 73.1834 33.4412 72.8374 36.5554V36.7284Z" fill="#FD6714"/>
</g>
<defs>
<clipPath id="clip0_12_243">
<rect width="200" height="89.7196" fill="white"/>
</clipPath>
</defs>
</svg>
